<?xml version="1.0" encoding="UTF-8" standalone="no"?>
<svg xmlns:rdf="http://www.w3.org/1999/02/22-rdf-syntax-ns#" xmlns="http://www.w3.org/2000/svg" height="554" viewBox="0 0 571 554" width="571" version="1.1" xmlns:cc="http://creativecommons.org/ns#" xmlns:dc="http://purl.org/dc/elements/1.1/">
<path d="m110.42 552.51c-9.47-2.99-17.663-9.02-22.602-16.64-3.705-5.72-4.244-5.8-22.318-3.38-6.05 0.8097-13.617 1.481-16.816 1.4917-3.1987 0.0107-6.6995 0.4925-7.7797 1.0706-1.7017 0.91071-2.1561 0.59123-3.4027-2.3923-0.7913-1.8938-6.0654-9.028-11.72-15.854-5.6549-6.8257-12.704-15.401-15.664-19.056-3.0112-3.7178-6.3152-6.7782-7.5-6.9473l-2.117-0.3 0.36909-62c0.20301-34.1 0.65301-83.6 1-110l0.6309-48 43.25-0.26c45.746-0.27567 45.01-0.18656 41.232-4.9892-6.8924-8.7622-5.5324-34.511 2.3297-44.108 0.84472-1.0312 0.68766-1.669-0.65226-2.6487-5.7379-4.1956-2.3526-30.559 4.1261-32.132 1.4928-0.3626 3.6019-1.2671 4.6868-2.0101 2.4711-1.6922 5.2041-1.7392 5.8652-0.1008 0.27741 0.6875 0.53991 0.26406 0.58333-0.94098 0.0434-1.205-0.37202-2.4697-0.92322-2.8104-2.068-1.2781 1.8883-20.254 5.6118-26.916 2.7752-4.9653 7.8882-9.318 15.14-12.889 5.1013-2.5118 5.1276-2.7184 1-7.8586-11.107-13.831 3.9137-36.949 23.001-35.4 5.4236 0.44006 10.31 0.24725 13.858-0.54686 7.6866-1.7202 9.1797-0.2817 6.8451 6.5949-1.0445 3.0765-1.3804 5.9416-0.92844 7.9188 0.38952 1.704 0.66931 5.4417 0.62177 8.306-0.0476 2.8643 0.51652 6.6419 1.2535 8.3946 1.2234 2.9097 1.1121 3.6335-1.2806 8.3236-1.4413 2.8252-3.2418 6.6326-4.001 8.4609-0.89799 2.1622-2.5583 3.8162-4.75 4.732-1.8532 0.77432-3.3545 1.7393-3.3362 2.1444 0.0509 1.1272 3.677 5.2358 4.627 5.2427 0.46184 0.003 3.3147 2.3067 6.3397 5.1184 3.025 2.8118 7.8452 6.9 10.712 9.085 2.8663 2.185 5.4897 4.849 5.8296 5.92 0.89881 2.8319 8.1336 7.2658 12.338 7.5613 1.9916 0.13999 14.519 0.47266 27.839 0.73928 27.925 0.55898 29.749 0.99457 30.519 7.287 0.68965 5.6419 0.0431 6.5898-4.0425 5.9268-2.2404-0.36357-4.4482-0.0267-6.102 0.93107-1.4253 0.82542-5.715 2.7544-9.5326 4.2866-3.8177 1.5322-7.0986 3.2578-7.2909 3.8348-0.71863 2.1559 3.6249 1.9591 9.2662-0.41981 13.951-5.8833 21.43-3.4455 22.932 7.4751 1.3949 10.142 5.154 9.5518 4.6788-0.73448-0.27851-6.0285-0.074-6.9847 1.6969-7.9324 5.0483-2.7018 8.9615 3.3993 7.1156 11.094-1.4007 5.8389-1.0873 6.2724 5.5278 7.6448 6.4937 1.3473 6.7999 0.81624 5.9528-10.324-0.37643-4.95-0.96641-26.1-1.3111-47l-0.62665-38-2.4532-4.13-2.4532-4.13 1.9532-5.8031c3.053-9.0706 3.8341-9.6739 13.23-10.218 9.1282-0.52843 9.3132-0.70372 8.1607-7.7316-1.4783-9.0144-1.1322-17.001 0.81289-18.76 1.5614-1.412 1.6811-2.9643 1.111-14.405-0.57371-11.512-1.1938-38.851-0.95482-42.097 0.16052-2.1801 33.274-10.585 47.094-11.953 3.025-0.29951 6.4-1.0265 7.5-1.6155 1.1-0.58902 4.475-1.3957 7.5-1.7927 6.3733-0.83634 20.518-4.4283 23.637-6.0024 1.5183-0.76629 26.83-0.82999 87.44-0.22004l85.28 0.87 0.47077 7c0.89676 13.334-0.31188 102.82-1.4128 104.6-0.21638 0.35011-0.43876 14.758-0.49418 32.018-0.12051 37.529 0.82614 34.85-12.349 34.952-5 0.04-9.99 0.46-11.09 0.93-4.0971 1.7606 25.827 0.38177 30.5-1.4054 2.8692-1.0972 3.927 0.95927 4.4849 8.7194 0.6312 8.7798-0.35355 11.686-3.9597 11.686-2.0566 0-2.4494 0.54246-2.7148 3.75l-0.31 3.75-12.5 0.7c-6.875 0.38422-18.575 0.9589-26 1.2771-7.425 0.31817-15.525 0.98919-18 1.4912-5.5923 1.1342-20.177 2.0444-34 2.1218-5.775 0.0323-20.625 0.74236-33 1.5778-59.595 4.0233-51.884 3.7693-67.297 2.2163-15.116-1.5232-13.871-4.4826-12.695 30.163 3.509 103.42 3.8531 108.25 8.0926 113.58 2.0693 2.6038 2.8996 4.7548 2.8996 7.5112 0 3.6113 0.19202 3.8625 2.953 3.8625 5.1766 0 6.5404 9.1895 2.9441 19.839-2.6312 7.7916-9.1987 13.605-14.34 12.694-2.457-0.43564-2.6435-0.36138-0.94946 0.37809 2.8501 1.2441 3.2471 4.1431 2.8882 21.09-0.22078 10.425 0.11927 16.288 1.21 20.862 1.7312 7.2603 1.3137 18.063-0.97135 25.138-0.79946 2.475-2.7121 8.775-4.2503 14-10.804 36.698-50.683 47.788-76.232 21.198l-5.2475-5.4613-7.3072 0.46894c-5.0016 0.32099-9.1358 1.3061-13.103 3.1223-4.4419 2.0335-9.1009 3.0209-19.945 4.2268-19.618 2.1815-27.936 3.1788-36.65 4.3942-21.279 2.968-28.031 3.4559-32.249 2.3301-5.1135-1.3649-6.4627-0.51928-7.2936 4.5715-3.7374 22.897-29.726 38.709-52.041 31.662zm24.047-16.951c23.38-11.439 20.361-50.674-4.0936-53.191-16.358-1.6833-29.289 14.763-28.222 35.893 0.89099 17.644 15.559 25.496 32.315 17.298zm-17.97-4.43c-16.798-10.43-10.2-40.13 8.92-40.13 15.094 0 25.052 15.133 19.166 29.128-4.2258 10.049-19.795 16.148-28.082 11.001zm15.935-5.1046c1.55-0.6 2.56-1.76 2.56-2.96 0-3.0591 2.1102-6.972 4.1006-7.6037 3.1469-0.9988 3.4233-4.4662 0.5456-6.8447-1.7873-1.4773-2.6568-3.286-2.8576-5.9443-0.41609-5.5084-4.4616-7.9761-8.9007-5.4291-3.6195 2.0768-5.215 2.177-7.9646 0.5-2.9452-1.7962-7.8417 3.5256-5.6263 6.115 2.831 3.309 2.7921 4.1154-0.34657 7.1835-5.5912 5.4656-2.3036 13.511 5.0411 12.337 3.2195-0.51482 4.0637-0.26988 5.1688 1.4997 1.4308 2.2912 4.2315 2.6769 8.2746 1.1397zm-71.048-0.0985c24.344-2.87 26.608-4.12 26.608-14.68 0-50.621 70.206-61.55 83.515-13.001 0.71532 2.6092 1.0904 5.5476 0.83363 6.5297-1.3301 5.0865 1.31 7.4968 7.4193 6.7736 10.376-1.2283 57.562-7.4673 66.024-8.7297l8.2918-1.2371 4.7883-9.5403c2.6336-5.2472 5.3996-11.115 6.1468-13.04 0.74718-1.925 2.3758-5.1424 3.6192-7.1498s4.3703-9.2074 6.9486-16c8.28-21.81 25.26-44.85 33.04-44.85 0.38794 0 2.7698-1.3062 5.2929-2.9028 5.1732-3.2734 6.366-3.4345 41.588-5.6186 14.388-0.89222 15.167-1.4783 19.077-14.36 3.1784-10.472 1.3328-12.809-8.8182-11.168-3.4421 0.55664-16.833 1.7166-29.758 2.5777-30.104 2.0056-34.848 2.3869-38.5 3.0945-1.65 0.31964-17.025 1.0978-34.167 1.7292-36.776 1.3546-32.382-1.189-32.805 18.993-0.41854 19.986 0.67793 18.186-11.203 18.396-5.4036 0.0956-13.875 0.65618-18.825 1.2457-4.95 0.5895-18.675 1.9302-30.5 2.9794s-30.5 2.8312-41.5 3.96-27.2 2.74-36 3.5805c-25.983 2.48-28.5 2.92-28.5 5.01 0 0.81-0.616 1.48-1.369 1.48-1.804 0-2.541-4.94-2.107-14.1 0.72-15.22 1.204-110.73 0.602-118.9l-0.626-8.5-5.5-0.26c-3.025-0.14261-6.1272 0.14896-6.8939 0.64794-1.6886 1.0991-2.6228 29.936-3.6316 112.11-0.62144 50.62-0.88421 66.914-1.4111 87.5-0.11261 4.4-0.17296 12.612-0.13411 18.25l0.071 10.25h4.6367c2.5502 0 8.7377-0.48319 13.75-1.0738zm-23.278-14.18c0.06297-3.9875 0.25674-14 0.43059-22.25 0.17386-8.25 0.45984-47.81 0.63551-87.91l0.32-72.91-3.362-1.13c-4.006-1.35-6.138-3.97-6.138-7.54 0-13.847-9.3083-9.2847-9.641 4.7257-1.3053 54.973-1.6209 57.518-6.6751 53.833-6.082-4.44-5.7961-5.44-6.3489 22.11-0.2629 13.1-0.8016 36.2-1.1971 51.32-0.78868 30.163-0.71603 30.717 4.7799 36.5 2.0909 2.2 6.0023 6.9291 8.6919 10.509 16.584 22.075 18.338 23.282 18.505 12.741zm292.58-10.19c11.153-5.1929 17.725-13.254 19.429-23.83 0.53913-3.3477 1.2743-6.5625 1.6336-7.1439 5.2655-8.5197-3.2174-31.937-12.828-35.413-23.705-8.5736-37.347-0.93659-44.344 24.824-8.5337 31.419 10.599 53.441 36.11 41.563zm-16.27-16.054c-13.14-5.64-11-32.51 2.59-32.51 3.058 0 4.4469 2.6838 2.0522 3.9654-1.1636 0.62274-2.0646 2.1045-2.0646 3.3954 0 1.2598-1.125 3.3474-2.5 4.6391-2.6411 2.4812-3.2462 5.8538-1.3842 7.7158 0.61369 0.61369 1.6488 2.1662 2.3003 3.45 1.1959 2.3567 1.7955 2.4536 9.0838 1.4692 6.6604-0.8996 11.059-6.9798 10.359-14.32-0.41246-4.3251 1.4433-5.0897 2.705-1.1145 0.60575 1.9085-0.12912 11.383-1.1598 14.953-1.5492 5.3663-16.08 10.89-21.982 8.3558zm5.83-13.64c-1.97-2-1.53-4.87 0.75-4.87 1.1 0 2 0.45 2 1s0.675 1 1.5 1c0.93333 0 1.5-0.94444 1.5-2.5 0-2.7296 0.93588-3.1641 2.8-1.3 1.592 1.592 1.523 4.2871-0.14531 5.6716-2.1911 1.8184-7.0268 2.3908-8.4047 0.99483zm-50.299 26.051c5.2403-1.1238 5.8062-1.966 4.1129-6.1201-0.51498-1.2634-1.2104-3.9846-1.5453-6.047-0.84935-5.2302-2.2271-4.6885-5.087 2-1.3522 3.1625-2.9177 6.5558-3.4788 7.5407-0.89318 1.5676-0.5714 3.7093 0.5573 3.7093 0.21546 0 2.6639-0.48729 5.441-1.0829zm-189.94-68.37c6.872-0.8 21.714-2.38 32.994-3.51 11.275-1.1321 24.775-2.5186 30-3.0811 10.55-1.1358 22.105-2.3033 44.5-4.4964 30.689-3.0053 35.088-3.8344 35.913-6.7683 0.33928-1.2061 0.87442-13.668 1.1892-27.693s0.87897-39.225 1.2538-56c0.37478-16.775 0.43867-32.075 0.14198-34l-0.53945-3.5-7.4795 0.15136c-15.266 0.30893-60.874 2.4261-72.479 3.3647-20.732 1.6765-46.515 2.9726-65.667 3.301-12.526 0.2148-12.304 0.0713-12.372 8.0094-0.457 53.436-1.9202 122.57-2.6229 123.92-1.1306 2.1783-1.0298 2.1803 15.168 0.29854zm-6.006-107.35c0-2.1888 2.0118-2.3635 66.5-5.7749 26.4-1.3966 54.3-2.8948 62-3.3295 13.106-0.73985 17.333-0.24793 16.026 1.8653-0.24832 0.40178-10.031 1.0311-21.739 1.3984-11.708 0.36736-27.813 1.1167-35.788 1.6652-7.975 0.54852-28.675 1.6838-46 2.523-17.325 0.83911-33.638 1.793-36.25 2.1198-3.0565 0.3823-4.75 0.21569-4.75-0.46731zm-0.38196-6.0052c-1.629-2.63-0.658-2.72 68.382-6.21 10.725-0.54177 26.7-1.421 35.5-1.9537 35.798-2.1673 38.5-2.2508 38.5-1.1905 0 1.7849-1.0491 1.9402-17.5 2.591-8.8 0.34812-18.475 0.84818-21.5 1.1112-3.025 0.26306-19 1.1673-35.5 2.0094-32.664 1.6671-52.856 2.9874-61.616 4.0288-3.5639 0.42372-5.8534 0.283-6.2663-0.38514zm-1.026-6.04c-1.009-1.63 0.302-1.9 12.408-2.56 6.325-0.34454 18.7-1.0642 27.5-1.5992 8.8-0.53503 29.5-1.6582 46-2.496 16.5-0.83775 35.484-1.9628 42.187-2.5002 11.854-0.9503 15.313-0.70265 15.313 1.0964 0 1.419-3.4589 1.7646-24 2.3978-10.725 0.33059-25.575 1.0228-33 1.5384-7.425 0.5155-27.675 1.6186-45 2.4512-17.325 0.83266-33.589 1.7769-36.142 2.0983-2.7034 0.34033-4.9028 0.16262-5.2663-0.42552zm287.93 101.03c-0.46113-1.2017-1.977-1.3545-8.2095-0.82769-9.4597 0.79964-9.6083 0.95352-4.752 4.9208 5.391 4.4041 9.3299 8.7793 10.084 11.201 0.34631 1.1118 1.1315 2.3441 1.7449 2.7384 1.1998 0.77122 2.2052-15.237 1.1325-18.032zm-119.67-30.82c7.7271-0.80764 7.6843-1.3704-0.39821-5.2312-8.82-4.22-9.45-4.13-9.45 1.37 0 5.0742-0.37661 4.9268 9.8533 3.8575zm56.15-2.31c7.425-0.56367 20.25-1.5364 28.5-2.1616 18.964-1.4372 18.606-1.2543 17.938-9.1613-1.2322-14.592-2.6622-26.986-4.4103-38.224-1.0266-6.6-2.422-16.05-3.101-21-0.67895-4.95-1.7974-9.675-2.4856-10.5-1.62-1.94-7.44-13.45-7.44-14.72 0-0.53312-3.2792-7.4524-7.2871-15.376-4-7.92-9.39-19.01-11.95-24.65-2.57-5.64-5.2-10.25-5.85-10.25-2.7448 0-15.347 5.2285-18.621 7.7254l-3.5605 2.7157 0.68762 11.029c0.37819 6.0662 0.84408 12.604 1.0353 14.529s0.86769 14.3 1.5033 27.5c0.63558 13.2 1.9541 35.925 2.9301 50.5 1.911 28.538 1.8586 29-3.2891 29-3.3304 0-7.9814 2.574-7.1326 3.9474 0.27551 0.44578 2.4205 0.65625 4.7667 0.46769 2.3462-0.18855 10.341-0.80401 17.766-1.3677zm-25.583-3.0093c10.695-4.9176 10.088-2.7905 8.6697-30.371-1.5956-31.037-1.8553-34.775-4.1276-59.395-1.0776-11.676-1.9809-24.726-2.0073-29-0.0795-12.87-2.4226-15.697-14.702-17.74-5.4301-0.90362-5.4734-1.333 1.5941 15.801 12.511 30.33 12.466 30.183 12.377 40.668-0.17862 20.882-2.7159 25.705-16.868 32.063-8.452 3.7968-8.932 6.4755-3.9343 21.958 3.9416 12.211 4.1376 13.663 2.1895 16.229-2.7804 3.6628-2.8651 3.4855-9.0025-18.86-1.38-5-3.23-7.39-5.73-7.39-1.0327 0-1.8811-0.5625-1.8854-1.25-0.004-0.6875-1.127-1.7691-2.4948-2.4035-2.3795-1.1036-2.4548-1.0388-1.7422 1.5 0.40966 1.4594 0.66897 8.7903 0.57626 16.291l-0.16858 13.637 10.169 4.6664c5.5927 2.5665 11.519 5.2884 13.169 6.0486 4.2503 1.9582 4.3735 1.9365 13.917-2.4518zm91.83-2c6.5012-0.31241-0.83717-9.7361-7.9654-10.229-6.9396-0.47978-7.6324 0.0913-6.6167 5.4538 1.0059 5.3106 2.0749 6.0038 8.2864 5.3737 3.0502-0.30941 5.8832-0.57878 6.2957-0.5986zm-5.06-15.29c0.22401-0.6875 0.0822-8.9-0.31511-18.25-0.39732-9.35-0.98873-27.125-1.3142-39.5-0.32551-12.375-0.81991-25.2-1.0987-28.5-0.27877-3.3-0.68644-14.55-0.90594-25s-0.87819-27.775-1.4638-38.5c-2.6188-47.965-3.1192-59.195-3.1078-69.75l0.02-11.25h-5.4182c-8.87 0-8.58-0.46-8.58 13.49 0 10.926 1.0431 42.562 2.4402 74.006 0.2688 6.05 0.96962 28.775 1.5574 50.5 0.58776 21.725 1.7477 45.125 2.5776 52 0.82993 6.875 1.6987 14.975 1.9305 18 0.37639 4.9106 1.8983 15.608 3.0942 21.75 0.50451 2.5909 9.7894 3.4674 10.593 1zm-120.06-28.17c3.5343-1.4847 5.5392-3.239 8.9978-7.8732 1.1451-1.5343 5.0987-4.3089 8.7857-6.1657 10.657-5.3668 12.213-8.8401 3.0082-6.7154-2.7897 0.64394-6.5783 1.1708-8.4191 1.1708-2.0009 0-4.4838 0.92212-6.1737 2.2929-4.25 3.45-8.09 5.71-9.69 5.71-1.92 0-2.64 2.2-2.64 8.08 0 5.4759 0.60509 5.8216 6.1279 3.5017zm24.702-24.038c4.1761-0.82744 6.1701-1.6635 6.1701-2.5871 0-1.864-6.081-16.127-8.5292-20.005-2.3567-3.7333-5.0995-4.7557-3.8212-1.4244 0.3544 0.92356-2.099 4.2099-6.6361 8.889-7.6794 7.9198-7.9213 8.7336-4.299 14.465 1.5132 2.3943 7.2532 2.6164 17.115 0.66236zm-17.52-16.861c2.8544-2.4019 5.9874-4.6533 6.9624-5.0032 1.821-0.6534 0.46162-4.6814-1.5799-4.6814-1.8282 0-7.5355 5.2373-8.0825 7.4169-0.40566 1.6163-1.5526 2.5215-3.7519 2.9614-3.972 0.79441-5.8583 2.3262-5.8583 4.7575 0 2.7228 5.4805 0.29591 12.31-5.4513zm-193.31 4.44c0-1.3748-2.1207-2.7968-7-4.6936-5.436-2.11-17.433-9.04-19.067-11.01-1.348-1.63-10.933-2-10.933-0.43 0 0.54448 4.1625 3.0753 9.25 5.624s10.444 5.4782 11.904 6.51c1.4599 1.0318 3.9923 1.8761 5.6276 1.8761s3.5334 0.675 4.2181 1.5c1.3304 1.603 6 2.0874 6 0.62244zm56.5-1.1262c7.7-0.51756 19.175-1.2289 25.5-1.5807 6.325-0.35181 13.024-0.77513 14.886-0.9407 2.7491-0.24443 28.486-1.1836 52.114-1.9017 19.647-0.5971 20.169-0.81099 10.027-4.1046-4.9722-1.6147-7.8992-1.7012-32-0.94492-59.54 1.8683-77.419 0.76054-78.217-4.8462-0.48-3.36-66.81-3.95-66.81-0.59 0 0.54234 0.7875 1.2831 1.75 1.6461 0.9625 0.36301 4.4348 2.2614 7.7163 4.2186s9.5815 5.2165 14 7.2429l8.034 3.68 14.5-0.47c7.975-0.25613 20.8-0.88914 28.5-1.4067zm120.32-8.8652c2.8552-1.8103 4.3131-18.014 2.136-23.741l-1.0417-2.7398-3.4849 5.1748c-6.4087 9.5164-8.2723 6.6778-2.8365-4.3207 2.0067-4.0603 3.8845-9.6449 4.25-12.639 0.72-5.81 3.08-7.44 4.16-2.86 0.32459 1.375 1.0137 2.5 1.5314 2.5 2.0263 0 1.3048-3.3161-2.2843-10.5l-3.7471-7.5-16 0.30582c-8.8 0.16819-18.925 0.74129-22.5 1.2735-3.575 0.53226-10.775 1.4584-16 2.058-10.337 1.1863-10.492 1.2826-11.423 7.1055-0.74 4.6-3.18 9.75-4.63 9.75-0.55 0-0.28938-1.3742 0.57916-3.0538 2.4599-4.7569 3.0454-12.226 1.0858-13.852-0.89-0.73-1.62-1.91-1.62-2.61 0-3.1452-8.4003-3.3023-20.671-0.38674-7.808 1.8552-9.6384 1.964-15.829 0.94065-3.85-0.63642-8.35-1.2429-10-1.3478l-3-0.19066-0.28953 8.1937c-0.3473 9.8283-1.1195 9.1898 14.79 12.227 19.055 3.6376 21.232 3.9851 28.197 4.4995 3.6832 0.27207 10.069 1.6268 14.192 3.0106 8.321 2.7933 7.1905 2.965 20.602-3.1287 5.303-2.4096 16.469-9.5534 26.215-16.771 2.5878-1.9166 4.959-3.0741 5.2692-2.5721 0.76383 1.2359-8.9023 10.996-14.474 14.615-2.475 1.6075-5.0242 3.4156-5.6648 4.018-0.64066 0.60234-2.5532 1.6702-4.25 2.3731-7.2293 2.9945-2.3607 3.1268 5.2299 0.14218 3.7813-1.4868 4.7325-1.3944 4.0465 0.3931-1.3034 3.3967 3.5987 1.2362 8.7919-3.8747 10.134-9.9734 19.191-11.722 9.68-1.869-6.3491 6.5776-6.7724 7.6206-5.3212 13.112 0.67326 2.5475 2.0316 8.2319 3.0185 12.632 2.1972 9.7955 5.9642 13.009 11.291 9.631zm-115.25-45.01c-0.41-0.67 0.08-1.11 1.23-1.11 1.0557 0 4.1198-0.28333 6.809-0.62963 3.4473-0.44391 4.5946-0.31462 3.8896 0.43833-1.5003 1.6023-11.098 2.6506-11.931 1.3031zm25.202-2.6736c-2.0859-2.0859 3.9576-6.4411 8.9288-6.4345 3.4306 0.005 9.5966 3.6025 9.0423 5.2762-0.42814 1.2928-16.783 2.3469-17.971 1.1583zm77.23 44.17c0-2.282-2.5805-7.7009-3.3167-6.9648-0.87831 0.87831-0.89116 6.8088-0.0166 7.6833 1.1767 1.1768 3.3333 0.71188 3.3333-0.71852zm26.424-1.668c5.7128-3.8555 5.785-3.9931 3.948-7.5185-0.83922-1.6106-3.2744-6.9783-5.4115-11.928-2.1371-4.95-3.9366-8.775-3.9988-8.5-0.52103 2.3031-0.30039 31 0.23835 31 0.38493-0.00006 2.7357-1.374 5.2239-3.0533zm20.58-3.38c0-0.79254-0.39744-1.6866-0.88319-1.9868-0.48575-0.30021-1.9178-3.7018-3.1824-7.559-2.3361-7.1257-3.3068-7.9546-7.0002-5.978-2.5463 1.3627-2.4408 3.0316 0.56664 8.9666 3.06 6.04 10.5 10.68 10.5 6.56zm-65.18-2.31c-0.31483-2.7362-0.35525-2.75-8.0664-2.75-9.268 0-10.248 1.3024-2.75 3.6534 8.5631 2.6848 11.204 2.4642 10.816-0.9034zm-34.99-0.88961c11.44-1.2 5.11-2.36-12.83-2.36-16.249 0-20.162 0.50461-18.306 2.3605 0.82875 0.82874 23.203 0.82865 31.132-0.00013zm-41.83-4.86c1.0077-1.2142 0.97282-1.5-0.18328-1.5-3.718 0-19.424-14.563-17.808-16.511 1.335-1.6086 2.0489-15.07 1.0402-19.615l-0.7489-3.3742-3.8982 8c-6.3252 12.981-5.4691 25.134 2.1208 30.107 6.3904 4.1872 17.085 5.7756 19.477 2.893zm213-5.759c0-5.762-2.8504-63.976-3.4393-70.241-0.25849-2.75-0.76496-12.875-1.1255-22.5-0.36053-9.625-0.74125-19.644-0.84605-22.265-0.21293-5.325-2.9306-9.4173-4.5328-6.8257-0.47923 0.77512-0.69742 1.9001-0.48487 2.5 0.21255 0.59987 0.84013 13.241 1.3946 28.091 1.3454 36.032 3.8744 86.293 4.5236 89.905 1.1583 6.4437 4.5103 7.4368 4.5103 1.3363zm-82.04-8.2c1.5-1.8 0.54-3.54-1.96-3.54-2.2479 0-3.3887 1.5448-2.62 3.5479 0.71592 1.8656 3.0336 1.8636 4.5836-0.004zm-157.56-20.46c2.9369-8.384 3.2236-10.484 1.0363-7.5899-2.7694 3.6642-5.4414 14.429-5.3041 21.37l0.132 6.64 0.768-6.5c0.42233-3.575 1.9382-9.841 3.3686-13.924zm230.2-20.58c-0.86502-16.5-1.8148-35.175-2.1106-41.5-1.0856-23.213-1.737-33.518-2.1649-34.25-0.77604-1.3282-2.2221-0.80182-3.2927 1.1986-1.1413 2.1326 2.1914 74.781 3.9098 85.227 0.51348 3.1215 0.68262 8.1072 0.37587 11.079-0.44966 4.3568-0.10793 6.3573 1.7637 10.325l2.3215 4.9207 0.38506-3.5c0.21179-1.925-0.32268-17-1.1877-33.5zm-7.0068 23.618c-1.73-11.56-4.49-62.64-4.97-92.12-0.11352-6.9733-0.28012-7.5224-2.3721-7.8196-2.7102-0.38491-2.7201-0.12054-1.2644 33.82 0.53077 12.375 1.2028 28.8 1.4933 36.5 0.29056 7.7 0.80351 16.362 1.1399 19.25 0.64572 5.5427-1.7394 7.9677-2.9506 3-0.877-3.5967-3.5786-60.637-4.0376-85.25l-0.13056-7h-3-3l-0.0638 11c-0.0843 14.533 1.2291 57.217 2.0226 65.733 0.68612 7.364-0.80065 15.157-2.7648 14.492-0.73877-0.25027-1.2461-2.8486-1.3306-6.8147-0.20669-9.6996-2.1348-55.78-2.9135-69.631-0.70524-12.544-2.2469-17.557-4.3923-14.282-0.98701 1.5066-0.52702 45.704 0.79519 76.405l0.64725 15.029 3.5 0.85618c9.3736 2.293 11.333 3.2124 13.125 6.16 3.7255 6.1261 11.355 6.6158 10.464 0.67163zm-74.171 3.2752c2.449-0.93978 1.8684-3.283-0.99143-4.0007-3.2901-0.82577-5.2506 0.91013-3.462 3.0654 1.4073 1.6957 2.0954 1.8402 4.4534 0.93539zm22.343-6.4013c0.45865-6.136-7.7536-10.078-8.5957-4.1259-0.18752 1.3254-1.195 2.5907-2.2909 2.8773-3.0906 0.8082-1.6253 2.5898 3.199 3.8896 6.3966 1.7234 7.3868 1.3833 7.6876-2.6411zm13.718 1.8676c7.7317-2.5381 7.957-3.0604 2.0066-4.6519-7.1374-1.909-9.3872-1.5966-10.551 1.465-2.1527 5.662-0.67454 6.2133 8.5446 3.1869zm-29.496-3.8283c0.81246-1.5181 0.59152-2.8314-0.96481-5.7352-1.11-2.08-2.02-4.29-2.02-4.93 0-2.4356-3.188-2.1787-9.4752 0.76337-7.1277 3.3354-7.0676 3.2541-5.0728 6.8648 1.0311 1.8664 2.7328 2.7884 6.7146 3.6378 7.8952 1.6843 9.6431 1.5863 10.817-0.60675zm-118.56-4.65c4.4-1.69-2.05-6.39-8.76-6.39-1.9469 0-3.818-0.45-4.1579-1-1.1016-1.7825 10.786-1.1887 13.441 0.67138 3.2812 2.2982 22.841 3.2818 24.151 1.2145 2.1731-3.4313 1.0881-6.0842-2.1935-5.3635-3.0942 0.67961-3.097 0.67641-1.1164-1.3041 2.3136-2.3136 1.9819-5.8096-1.0368-10.926-2.1259-3.6032-2.7478-3.8894-4.5449-2.0923-1.7631 1.7631-1.5393 4.8674 0.3 4.1616 2.016-0.77362 1.8888 0.27313-0.5034 4.1439-2.4415 3.9504-11.443 4.6608-20.989 1.6565-6.0812-1.9138-9.106-6.1633-3.3567-4.7157 13.625 3.4306 21.349 2.9108 21.349-1.4366 0-1.8032-0.44107-1.9627-3.8974-1.41-3.91 0.62-11.1-1.04-11.1-2.57 0-0.44773-1.1781-1.1097-2.618-1.4711-3.368-0.8453-2.9268-1.1518 2.868-1.9929 3.1159-0.45224 4.75-0.3243 4.75 0.37187 0 0.5837-0.70156 1.0613-1.559 1.0613-0.85746 0-1.2809 0.45-0.94098 1 1.0144 1.6413 4.7462 1.1116 8.9223-1.2664 5.0161-2.8564 5.4206-4.2441 1.6232-5.5679-3.11-1.08-4.25-4.16-1.54-4.16 2.0207 0 1.8878-1.5325-0.41562-4.7905-5.1964-7.3499-3.367-7.4838 5.396-0.395 4.7746 3.8624 11.907 8.7157 15.85 10.785 3.9431 2.0693 8.9243 5.0309 11.069 6.5814 2.145 1.5505 4.2409 2.8192 4.6576 2.8192 0.41665 0 4.9616 1.9496 10.1 4.3325 5.1383 2.3829 13.392 5.5664 18.342 7.0746s10.042 3.2503 11.315 3.8713c3.4708 1.6929 6.7845-4.6461 4.1121-7.8662-3.64-4.38-21.5-14.85-25.18-14.76-2.56 0.06-3.75-0.34-3.75-1.28 0-0.84-1.11-1.37-2.88-1.37-1.9615 0-3.0376-0.58981-3.3658-1.8448-0.36297-1.388-1.7939-2.0002-5.7789-2.4721-5.6235-0.66601-14.135-4.363-14.752-6.4078-0.27615-0.91453 0.85221-0.84843 4.4551 0.26096 8.1699 2.5156 9.3249 2.7205 9.3249 1.6538 0-1.9322-8.7494-11.279-13.2-14.102-2.4453-1.5508-6.1331-4.8784-8.195-7.3948-4.0837-4.9836-4.8526-5.0617-10.288-1.0454-6.0618 4.479-7.4276 2.0553-1.7647-3.1317 4.5248-4.1445 4.0135-7.5029-1.6904-11.104-13.669-8.629-29.674 2.132-32.863 22.096-0.59015 3.6941-1.9219 8.3806-2.9594 10.414-1.8814 3.6878-1.8804 3.7057 0.37758 6.6372 5.5294 7.179 6.6373 32.439 1.4228 32.439-3.873 0 0.50434 3.9526 4.4923 4.0564 1.1925 0.031 3.7432 0.65236 5.6682 1.3807 3.8687 1.4637 8.9797 1.8916 11.418 0.95588zm40.08-0.83c2.75-0.33313 8.15-1.2573 12-2.0538 3.85-0.79646 9.5875-1.7191 12.75-2.0503 7.8071-0.81767 7.3204-1.4725-4-5.3825-5.3625-1.8522-12.835-4.6519-16.605-6.2217-9.2839-3.8656-9.0323-3.9805-12.208 5.5738-2.9413 8.8483-2.498 12.256 1.4541 11.179 0.88485-0.24119 3.8588-0.71108 6.6088-1.0442zm99.166-11.389c0.5-4.24 0.33-5.17-0.92-5.17-2.4736 0-3.7353 6.2592-2.1135 10.485 1.0214 2.6617 2.368 0.30318 3.0331-5.312zm-29.575 2.6621c3.347-1.7446 4.5143-1.9386 6.0172-1 2.8672 1.7906 3.6459 1.4395 4.8414-2.1829 1.7721-5.3694 0.58593-6.96-4.6092-6.181-6.6122 0.99156-13.006 4.1505-13.709 6.7729-1.4689 5.4817 0.56079 6.1867 7.4593 2.591zm-144.99-6.4c0.3838-1.6126 0.98737-4.6195 1.3413-6.682 1.3432-7.8282 7.3189-4.4167 8.2615 4.7164 0.66424 6.4359 2.6089 7.0312 3.1238 0.95629 1.4293-16.864-6.2263-27.473-13.142-18.211-2.5237 3.3802-3.9633 23.379-1.6269 22.6 0.73921-0.24641 1.658-1.7674 2.0418-3.38zm347.89-3.96c12.375-0.78581 29.025-1.9012 37-2.4785 7.975-0.57738 22.6-1.4789 32.5-2.0035 56.905-3.015 52.506-2.2361 52.485-9.293-0.0238-8.0768-0.0693-8.1021-13.139-7.3331-6.2399 0.36713-19.22 1.104-28.845 1.6375-9.625 0.53351-23.35 1.4663-30.5 2.073-7.15 0.6066-16.375 1.2711-20.5 1.4766-4.125 0.20551-14.475 0.85975-23 1.4539-64.562 4.4994-60 3.6776-60 10.81 0 7.2972-1.6062 7.1884 54 3.6574zm-214-9.47c0-0.55-0.675-1-1.5-1-7.6006 0 0.13672-2.7914 9.1526-3.3019 14.23-0.80584 16.204-2.7019 2.7974-2.6871-15.886 0.0176-24.366 3.266-18.393 7.0453 1.95 1.23 7.94 1.19 7.94-0.06zm149-1.607c0-1.01-1.41-1.39-5.12-1.39-4.3461 0-4.9412 0.21834-3.9268 1.4406 2.1877 2.6361 9.0493 2.5999 9.0493-0.0476zm-168.39-1.39c6.3648 0 9.2274-1.6721 6.7696-3.9541-1.28-1.2-23.38-2.42-23.38-1.29 0 1.5008 7.3809 6.3095 8.8318 5.7539 0.73248-0.28046 4.2341-0.50993 7.7814-0.50993zm194.88-2.0681c9.3454-0.595 17.207-1.2976 17.471-1.5612 1.35-1.35-2.7124-1.8385-10.15-1.2205-4.572 0.37992-11.771 0.72654-15.998 0.77027-4.2267 0.0437-8.8392 0.51838-10.25 1.0548-3.2036 1.218-3.4757 3.5048-0.3151 2.6482 1.2375-0.33536 9.8962-1.0966 19.242-1.6916zm57.01-3.44c5.5242-0.4305 44.268-3.2069 57.253-4.1028 4.5394-0.31318 8.0096-0.96379 7.7117-1.4458-0.5846-0.94591-7.5287-0.72459-30.965 0.98691-8.25 0.60247-26.195 1.7322-39.878 2.5106-16.325 0.92861-25.264 1.8264-26 2.6112-1.0589 1.1288 13.484 0.87331 31.878-0.56015zm-84.93-15.99c0.10762-24.218-1.759-73.892-2.8277-75.25-5.6423-7.1689-6.6517 8.7612-4.2928 67.75 0.90453 22.62 1.0149 23.197 4.3606 22.811l2.69-0.31 0.0667-15zm14.192 13.67c1.6276-1.0333 0.75275-52.849-0.92643-54.873-1.5676-1.8889-4.6064-1.5878-5.7617 0.57088-0.55 1.0277-0.77783 2.0907-0.50628 2.3622 0.27155 0.27154 0.68442 6.7432 0.91749 14.381 1.1442 37.497 1.6458 40.498 6.2769 37.558zm-23.945-13.47c-0.28-8.21-0.64-10.2-1.83-10.2-1.6426 0-2.1525 18.027-0.62219 22 1.6227 4.2134 2.7957-1.4371 2.4494-11.799zm41.169 11.82c1.2099-1.4578 0.77515-39.449-0.57526-50.27l-0.53037-4.25h-6.4701c-6.9475 0-10.978 45.178-4.9065 55.001 0.99534 1.6105 11.069 1.2223 12.482-0.48097zm18.667-0.57022c1.3904-1.3904 0.57169-51.942-0.86976-53.7-0.62389-0.76087-3.5068-1.25-7.3673-1.25-9.4173 0-8.8612-3.4061-6.8473 41.941 0.6116 13.771 7.9735 20.12 15.084 13.009zm17.52-25.95c-0.3922-31.478 0.21112-29.166-7.5141-28.796l-6.17 0.3-0.10261 25c-0.12549 30.573-0.36244 29.689 7.8461 29.298l6.25-0.3zm17.877 23.968c2.1184-1.1337 1.9114-50.199-0.22131-52.468-0.97627-1.0388-10.734-1.1378-13.346-0.1354-2.6589 1.0203-1.5098 49.475 1.2384 52.223 1.6488 1.6488 9.5058 1.8912 12.329 0.38025zm20.053-1.6804c0.70425-0.70425 1.1296-5.8676 1.1494-13.953 0.0173-7.0592 0.43731-13.357 0.93339-13.996 0.54999-0.70794 0.49279-1.4139-0.1466-1.809-0.61-0.38-1.05-4.56-1.05-10.01 0-13.271-1.3408-14.405-14.031-11.867l-3.2812 0.65623 0.63529 24.708c0.72974 28.381 5.59 36.467 15.789 26.268zm18.213-1.2125c0.57217-0.57217 0.59266-10.501 0.0531-25.753l-0.87-24.83h-6.5-6.5l-0.26755 25.43c-0.20711 19.686 0.0188 25.608 1 26.215 1.6152 1.0005 11.859 0.16306 13.092-1.0704zm17.43-0.71c2.6152-0.70085 2.7294-3.0703 1.5925-33.041l-0.65138-17.172-6.5015-0.32849c-10.032-0.50688-9.5845-1.7553-8.8934 24.797 0.73975 28.423 1.226 29.289 14.454 25.744zm16.975-0.99339 2.2247-0.59637-0.12529-23.892c-0.13994-26.687 0.10906-25.826-7.3662-25.489-8.0643 0.36284-7.6569-1.0415-7.3872 25.463 0.2821 27.727 0.32935 27.819 12.654 24.515zm16.437-3.8693c0.43728-1.6461 0.91723-12.671 1.0666-24.5l0.27-21.51-3.9047-0.31959c-2.1476-0.17577-4.9601-0.0547-6.25 0.26906l-2.35 0.59v23.281c0 25.904 0.0135 25.958 6.4289 25.476 3.4275-0.2572 4.041-0.68345 4.733-3.2885zm-185.36-23.11c-0.22-4.44-0.67-5.9-1.8-5.9-1.9458 0-2.6839 9.971-0.89746 12.124 2.0056 2.4166 3.0264 0.0634 2.7017-6.2278zm-205.57-5.75c0.40305-0.63358 0.65112-2.3069 0.55128-3.7185-0.0998-1.4116 0.80789-3.9561 2.0172-5.6544 2.9383-4.1264 2.7966-5.2876-1.0423-8.5414l-3.259-2.7623 2.8584-2.3617c1.7544-1.4496 2.4416-2.6193 1.7794-3.0286-1.8354-1.1344-7.1332 2.3374-8.7544 5.737-0.84763 1.7775-2.8556 3.9862-4.4623 4.9083-1.6066 0.92207-2.9257 2.2599-2.9313 2.973-0.006 0.71308-1.8056 2.0506-4 2.9722-5.3934 2.2653-5.0294 3.9546 1.7602 8.169 5.9531 3.6951 13.555 4.337 15.483 1.3073zm204.54-19.389c-0.30166-16.065-0.41253-16.324-6.3558-14.832-3.6591 0.91838-3.6056 12.008 0.0791 16.387 1.845 2.1926 2.5 4.1341 2.5 7.4101 0 4.7029 0.49901 5.7723 2.6934 5.7723 1.0978 0 1.3067-2.8424 1.0833-14.737zm-228.36-1.51c11.008-16.918 11.933-25.501 2.3052-21.369-11.35 4.87-19.29 29.62-9.5 29.62 1.1822 0 3.7081-2.8982 7.1902-8.25zm190.71 1.6671c26.934-0.57761 26.134-0.37436 25.693-6.5313l-0.31-4.39-5 0.0776c-2.75 0.0427-11.525 0.36562-19.5 0.71766-46.176 2.0384-44.961 1.8951-46.907 5.5316-2.2426 4.1904 3.3851 6.3592 14.528 5.599 3.9166-0.2672 18.092-0.72109 31.5-1.0086zm61.8-0.83c3.24-3.9 0.08-58.59-3.39-58.59-5.45 0-78.09 15.144-79.53 16.583-1.8587 1.8562-1.7515 19.807 0.13181 22.076 4.047 4.8763 5.7867-7.5678 2.13-15.236-2.67-5.593 2.91-8.423 16.59-8.423 3.2362 0 6.2919-0.54109 6.9882-1.2374 0.74653-0.74653 4.6086-1.3288 9.735-1.4678 5.6959-0.15442 9.2188-0.73554 10.685-1.7626 1.2-0.843 3.87-1.532 5.93-1.532 2.0584 0 5.8958-0.74129 8.5275-1.6473 6.44-2.219 16.98-2.447 16.28-0.353-0.63025 1.8908-0.16841 38.377 0.59176 46.75 0.59152 6.5154 2.5021 8.2517 5.3301 4.8441zm16.969-0.20319c1.3863-0.43469 0.93502-55.246-0.47364-57.525-0.3-0.475-3.44-0.865-6.98-0.865h-6.44l-0.0953 6.75c-0.22748 16.105 0.245 47.935 0.74135 49.943 0.71088 2.8757 6.9415 3.6746 13.245 1.6983zm36.006-0.82668c1.2325-0.7617 1.4266-50.173 0.2144-54.564-0.73203-2.6516-6.443-3.8863-11.78-2.5467l-2.33 0.589 0.10597 17.731c0.15083 25.237 1.0725 38.108 2.8054 39.177 1.5581 0.96155 9.2431 0.6941 10.985-0.38228zm18.959-0.89002c1.6924-2.0392 1.237-52.098-0.49946-54.907-0.82739-1.3387-14.091-0.90051-14.62 0.48307-0.77325 2.0203 0.71497 53.13 1.5869 54.5 1.0981 1.7254 12.089 1.6639 13.533-0.0758zm21.24-1.42c1.013-2.6625 0.32464-51.761-0.75012-53.5-0.84349-1.3648-16.084-0.87574-16.624 0.53347-1.158 3.0177 0.5983 52.757 1.9408 54.966 1.4633 2.4075 14.394 0.73178 15.434-2zm15.332-0.17443 2.8018-2.9244-0.73771-24.593c-0.79517-26.508-0.57321-25.661-6.8674-26.195-8.1906-0.69442-7.7616-2.0235-7.5753 23.472 0.19777 27.061 0.62062 31.909 2.8348 32.5 4.2852 1.1442 6.8678 0.53242 9.5439-2.2608zm54.347 1.6744c1.0619-1.3018 2.311-53.676 1.284-53.838-14.618-2.3074-14.372-2.7835-13.947 26.983 0.41022 28.699 0.0671 26.907 5.2409 27.378 2.2809 0.20777 4.6545 0.45638 5.2746 0.55247 0.62015 0.0961 1.5864-0.38779 2.1472-1.0753zm-126.28-27c-0.79093-33.126 0.16136-29.904-8.7323-29.544l-7.27 0.294 0.1 26.65c0.13 32.33-0.61 29.85 8.94 29.85h7.6051zm110.25 25.5c1.4977-3.8385 0.79562-51.296-0.77358-52.288-3.1224-1.9747-11.804-1.1437-13.087 1.2525-1.2241 2.2873-0.64258 49.752 0.63489 51.819 1.139 1.8429 12.462 1.1726 13.225-0.78288zm-17.227-1.2796c1.0129-1.6389 0.54677-46.669-0.51194-49.454-1.0117-2.661-11.448-3.7898-14.889-1.6104-1.0952 0.69364-1.2179 43.407-0.1489 51.844 0.10316 0.81409 15.027 0.0658 15.55-0.77964zm-362.49-4.6896c7.4456-5.1773 12.014-15.983 6.2225-14.719-7.0568 1.5405-7.8994 2.2934-9.232 8.2488-0.70012 3.1289-1.4887 6.2514-1.7524 6.9389-0.68767 1.7927 1.8716 1.5405 4.762-0.46924zm-4.8269-12.48c-1.3779-1.3779-2.809 1.5081-3.57 7.1994l-0.60173 4.5 2.5935-5.3421c1.755-3.615 2.2653-5.6703 1.5782-6.3574zm164.61 9.706c10.138-0.50169 11.38-0.85326 10.559-2.9906-0.44688-1.1646-3.0022-1.3322-14.206-0.93181-24.52 0.87-28.16 1.32-28.16 3.47 0 2.0367-0.28418 2.0327 31.808 0.44463zm29.555-2.5047c1.89-1.82-0.79-3.01-6.72-3.01-5.65 0-8.64 1.08-8.64 3.13 0 1.8953 13.37 1.7867 15.363-0.12483zm19.149-5.0214c0.34657-0.56075 0.16848-2.4732-0.39574-4.25-0.56423-1.7767-1.1587-7.4996-1.3211-12.717-0.26018-8.3602-0.51854-9.5299-2.1754-9.8484-3.7934-0.72926-5.0692 11.069-2.091 19.335 0.79257 2.2 1.4478 5.0125 1.4561 6.25 0.0158 2.3594 3.281 3.2468 4.5271 1.2304zm-9.51-2.88c0-3.6947-1.0716-4.0458-9-2.9486-9.5736 1.3248-12.535-3.4898-6.35-10.324 4.0191-4.4411-3.7624-9.1219-8.045-4.8393-4.6463 4.6463 3.4434 19.199 10.038 18.057 3.9139-0.6775 10.076 0.38744 11.807 2.0406 1.413 1.3491 1.55 1.1735 1.55-1.9859zm-38-0.61c0.68-0.825 2.5-1.5 4.04-1.5 4.16 0 5.96-0.977 5.96-3.245 0-1.8731-0.42674-1.9805-5.5-1.3843-5.8968 0.69305-7.7531-1.0949-3.5-3.3711 3.957-2.1177 1.8534-5-3.6492-5-2.1298 0-2.3799 0.32203-1.747 2.25 0.40625 1.2375 0.64706 3.5842 0.53513 5.2149-0.46172 6.7266 1.3609 10.048 3.861 7.0351zm35.311-7.7017c3.0909-1.5938 1.2796-3.3126-3.2661-3.0993-4.2827 0.20103-9.0447 2.4957-9.0447 4.3585 0 1.1723 9.4747 0.20319 12.311-1.2592zm24.15-5.1457c1.0134-0.74105 1.4258-1.6049 0.91642-1.9198-1.4419-0.89113-7.6795 0.67516-8.1354 2.0428-0.56235 1.687 4.8701 1.5944 7.2189-0.12306zm-24.66-2.852c1.6971-1.6971 1.5007-2.5687-0.86392-3.8342-2.8735-1.5378-5.3225 0.44368-3.8799 3.1392 1.1603 2.1681 3.001 2.4377 4.7438 0.695zm24.16-4.252c1.67-2.018 0.34-5.548-2.09-5.548-4.3625 0-7.5958 3.9378-5.2002 6.3333 1.2139 1.2139 6.0681 0.69122 7.2935-0.78534zm-54.5-6.467c11.33-2.384 12.54-3.646 12.54-13.133 0-8.8977 1.6286-9.9025 1.8812-1.1606 0.26988 9.3384 0.6537 10.219 4.4362 10.177 10.155-0.11209 22.058-5.172 16.769-7.1286-9.86-3.646-5.82-45.836 4.39-45.836 0.86991 0 1.1888 6.0442 1.2168 23.066 0.0457 27.767-1.016 25.939 13.321 22.931 13.96-2.931 15.32-8.194 11.6-44.997-0.35-3.453-1.82-11-2.14-11-2.09 0-29.61 6.147-42.48 9.491-3.025 0.78569-10.9 2.6584-17.5 4.1616-12.275 2.7957-16.5 4.9858-16.5 8.5534 0 1.5001 0.67187 1.8118 3.4959 1.6216 5.0644-0.34107 5.1322-0.04756 4.5424 19.673l-0.53833 18-3.25-0.25381c-3.1678-0.24738-3.25-0.15251-3.25 3.75 0 4.6705-0.44683 4.5892 11.461 2.0847zm3.6533-6.01c-2.2679-1.4017-4.1468-31.66-2.4826-39.981 0.72063-3.6031 2.1264-4.5494 8.1179-5.4642l4.25-0.64892v6.5432c0 4.8937-0.37814 6.6883-1.5 7.1188-0.825 0.31658-1.5 1.2576-1.5 2.0911 0 1.2337 0.27889 1.284 1.5 0.27057 1.2956-1.0753 1.4914-0.64915 1.4366 3.1276-0.0572 3.943-0.16175 4.1269-1.0649 1.8724-1.8806-4.6943-3.1858 0.3553-2.6267 10.162 0.54125 9.4926-0.23781 11.579-2.6575 7.1174l-1.51-2.779-0.04 3.143c-0.024 1.8847 0.55374 3.3709 1.4431 3.7121 1.6496 0.633 1.0628 3.2214-0.90114 3.975-0.69485 0.26664-1.8052 0.14996-2.4673-0.2593zm1.6213-31.357c-0.2-2.868-0.36-0.264-0.36 5.786 0.002 6.05 0.16696 8.3961 0.36601 5.2135s0.1972-8.1326-0.004-11zm13.25 25.721c-4.5008-11.838 0.0961-46.283 5.7142-42.818 2.1943 1.3535 2.1516 43.207-0.0455 44.618-2.3032 1.4792-4.7129 0.71414-5.6687-1.7998zm4.93-33.685c0.05-1.512-0.36-2.75-0.91-2.75-0.59214 0-0.9455 3.1609-0.86639 7.75 0.13366 7.7525 1.4944 3.9276 1.7788-5zm22.056 30.667c-3.76-9.898-1.91-43.417 2.41-43.417 1.4289 0 3.3654 39.907 2.0969 43.212-1.0935 2.8496-3.4572 2.9573-4.5036 0.20522zm11.972-2.454c-4.4641-2.7589-3.6957-39.692 0.86211-41.441 2.88-1.1052 3.3774 1.2733 3.9225 18.76 0.67019 21.499-0.17956 25.527-4.7846 22.681zm156.12 4.371c0.46-0.459 0.91-10.284 1.01-21.834l0.17184-21-12.79-0.03803c-2.0271 10.169-2.8864 36.068-1.698 43.977 0.19963 1.3284 12.182 0.03065 13.313-1.1042zm17.736 0.40834c0.63727-0.76787 1.0875-8.8842 1.1565-20.849 0.12893-22.36 0.37143-21.695-8.235-22.583l-5.418-0.55919-0.64001 3.8743c-0.81578 4.9384-0.86108 37.692-0.055 39.793 0.76553 1.9949 11.584 2.261 13.192 0.32446zm-36.53-0.992c1.4223-1.077 1.691-4.0876 1.9411-21.75l0.29-20.5-7.606-0.28947-7.606-0.28947-0.63527 5.2895c-1.2018 10.007-0.76991 37.575 0.59734 38.127 2.5374 1.0239 11.42 0.62289 13.019-0.58772zm-92.84-1.321c1.32-1.321 1.57-4.671 1.57-21v-19.429h-8.0207-8.0207l0.2707 20.25 0.27071 20.25 5 0.5929c2.75 0.32609 5.5304 0.66359 6.1786 0.75 0.64822 0.08641 1.8857-0.55004 2.75-1.4143zm18.06-0.179c0.3868-0.9625 0.91468-10.412 1.1731-21l0.47-19.25h-7.56-7.57v19.8c0 14.067 0.34747 20.147 1.2 21 1.9694 1.9694 11.447 1.5452 12.289-0.55zm17.51-0.25c2.1195-2.1195 2.0631-1.4966 2.1283-23.5 0.05-18.636 1.04-16.5-7.63-16.5h-7.5l-0.12074 10.25c-0.0664 5.6375-0.20265 14.525-0.30275 19.75-0.2319 12.104 6.3878 17.036 13.423 10zm21 0c1.8588-1.8589 2-3.3333 2-20.893 0-21.546 0.83214-19.943-10.031-19.333l-7.531 0.42256-0.14837 19.634c-0.0943 12.483 0.23473 20.096 0.90341 20.902 1.8 2.163 12.44 1.636 14.81-0.733zm19.21-18.51c0.35-24.711 1.05-22.49-7.14-22.49h-6.7666l-0.62827 11.75c-0.5927 11.085-0.1489 27.247 0.82375 30 0.29196 0.82628 2.6423 1.25 6.9337 1.25h6.492zm-93.51 16.088c0.43983-0.78234 0.57469-9.4448 0.29969-19.25l-0.5-17.828-6.13-0.295c-7.6355-0.36694-7.5748-0.53168-7.4229 20.16 0.12718 17.315 8.0919 27.282 13.754 17.212zm-48.83-28.078c-0.41147-1.1032-0.70383 2.0356-0.652 7l0.094 9 0.652-7c0.3586-3.85 0.31632-7.9-0.094-9zm48.13-19v-4.5h-7-7v3.8333c0 5.0087 0.23 5.1667 7.67 5.1667h6.33zm18.25 3.8614c1.29-0.364 1.75-1.539 1.75-4.4284v-3.9326h-8.5-8.5v4.375 4.375l6.75 0.05381c3.7125 0.0296 7.5375-0.16948 8.5-0.44239zm19.75-3.7902v-4.5708h-7.5-7.5l0.004 4.25 0.004 4.25 7.4962 0.32084 7.5 0.321zm18-0.0708v-4.5h-7.5-7.5v4.5 4.5h7.5 7.5zm18.75 3.5611c1.89-0.051 2.25-0.616 2.25-3.561v-3.5h-5.875c-3.2312 0-7.2812-0.28125-9-0.625l-3.12-0.625v4.5458 4.5458l6.75-0.35976c3.7125-0.19787 7.7625-0.38724 9-0.42082zm74.47-4.042-0.45-3.019h-6.9499-6.9499l0.31336 3.25c0.30904 3.2052 0.39606 3.257 6.3134 3.7571 7.1435 0.6037 8.3021 0.0048 7.7161-3.9881zm-54.41 0.231 0.32-3.25h-7.57-7.56v3.5438 3.5438l7.25-0.29381 7.25-0.294zm13.44 2.764c4.61-0.014 4.75-0.104 4.75-3.014v-3h-7.5-7.5v2.8333c0 3.5085 0.86524 4.4394 3.4746 3.7382 1.114-0.29934 4.1629-0.55039 6.7754-0.5579zm23.75-2.514v-3.5h-8-8v2.9167c0 3.5778 0.75591 3.905 9.25 4.0044l6.75 0.079z"/>
</svg>
